HIERARCHY
ROOT Hips
{
  OFFSET 62.6061 91.3622 18.1081
  CHANNELS 6 Xposition Yposition Zposition Zrotation Xrotation Yrotation
  JOINT spine
  {
    OFFSET 0 6.84637 0.3937
    CHANNELS 3 Zrotation Xrotation Yrotation
    JOINT spine1
    {
      OFFSET 0 9.49621 0
      CHANNELS 3 Zrotation Xrotation Yrotation
      JOINT spine2
      {
        OFFSET 0 9.09909 0
        CHANNELS 3 Zrotation Xrotation Yrotation
        JOINT Neck
        {
          OFFSET 0 23.3612 1.11378
          CHANNELS 3 Zrotation Xrotation Yrotation
          JOINT Head
          {
            OFFSET 0 7.05802 0
            CHANNELS 3 Zrotation Xrotation Yrotation
            End Site
            {
              OFFSET 0 17.0844 -5.63419
            }
          }
        }
        JOINT RightShoulder
        {
          OFFSET -3.83136 9.82631 -0.533491
          CHANNELS 3 Zrotation Xrotation Yrotation
          JOINT RightArm
          {
            OFFSET 0 12.8881 0
            CHANNELS 3 Zrotation Xrotation Yrotation
            JOINT RightArmRoll
            {
              OFFSET 0 6.50617 0
              CHANNELS 3 Zrotation Xrotation Yrotation
              JOINT RightForeArm
              {
                OFFSET 0 18.9501 0
                CHANNELS 3 Zrotation Xrotation Yrotation
                JOINT RightForeArmRoll
                {
                  OFFSET 0 7.30093 0
                  CHANNELS 3 Zrotation Xrotation Yrotation
                  JOINT RightHand
                  {
                    OFFSET 0 14.6514 0
                    CHANNELS 3 Zrotation Xrotation Yrotation
                    End Site
                    {
                      OFFSET 0 0 0
                    }
                  }
                }
              }
            }
          }
        }
        JOINT LeftShoulder
        {
          OFFSET 3.83136 9.82631 -0.533491
          CHANNELS 3 Zrotation Xrotation Yrotation
          JOINT LeftArm
          {
            OFFSET 0 12.8881 0
            CHANNELS 3 Zrotation Xrotation Yrotation
            JOINT LeftArmRoll
            {
              OFFSET 0 6.50617 0
              CHANNELS 3 Zrotation Xrotation Yrotation
              JOINT LeftForeArm
              {
                OFFSET 0 18.9501 0
                CHANNELS 3 Zrotation Xrotation Yrotation
                JOINT LeftForeArmRoll
                {
                  OFFSET 0 7.30092 0
                  CHANNELS 3 Zrotation Xrotation Yrotation
                  JOINT LeftHand
                  {
                    OFFSET 0 14.6514 0
                    CHANNELS 3 Zrotation Xrotation Yrotation
                    End Site
                    {
                      OFFSET 0 0 0
                    }
                  }
                }
              }
            }
          }
        }
      }
    }
  }
  JOINT RightUpLeg
  {
    OFFSET -6.06837 -1.11278 -0.933477
    CHANNELS 3 Zrotation Xrotation Yrotation
    JOINT RightUpLegRoll
    {
      OFFSET 0 17.1796 0
      CHANNELS 3 Zrotation Xrotation Yrotation
      JOINT RightLeg
      {
        OFFSET 0 -21.2743 0
        CHANNELS 3 Zrotation Xrotation Yrotation
        JOINT RightLegRoll
        {
          OFFSET 0 21.3439 0
          CHANNELS 3 Zrotation Xrotation Yrotation
          JOINT RightFoot
          {
            OFFSET 0 17.7652 0
            CHANNELS 3 Zrotation Xrotation Yrotation
            JOINT RightToeBase
            {
              OFFSET 0 14.8508 0
              CHANNELS 3 Zrotation Xrotation Yrotation
              End Site
              {
                OFFSET 0.0062947 7.19213 -0.829005
              }
            }
          }
        }
      }
    }
  }
  JOINT LeftUpLeg
  {
    OFFSET 6.06837 -1.11278 -0.933477
    CHANNELS 3 Zrotation Xrotation Yrotation
    JOINT LeftUpLegRoll
    {
      OFFSET 0 17.1797 0
      CHANNELS 3 Zrotation Xrotation Yrotation
      JOINT LeftLeg
      {
        OFFSET 0 21.2742 0
        CHANNELS 3 Zrotation Xrotation Yrotation
        JOINT LeftLegRoll
        {
          OFFSET 0 21.5412 0
          CHANNELS 3 Zrotation Xrotation Yrotation
          JOINT LeftFoot
          {
            OFFSET 0 17.5679 0
            CHANNELS 3 Zrotation Xrotation Yrotation
            JOINT LeftToeBase
            {
              OFFSET 0 14.8508 0
              CHANNELS 3 Zrotation Xrotation Yrotation
              End Site
              {
                OFFSET -0.0282102 7.19214 -0.829005
              }
            }
          }
        }
      }
    }
  }
}
MOTION
Frames: 13
Frame Time: 0.00208333
55.6657 91.6538 9.49319 0.735854 -2.79266 1.73402 0.135009 -1.2154 -0.61447 0.247045 1.57075 -1.25981 0.262358 3.21565 -1.26471 -5.87238 26.678 1.6076 4.28834 -12.4146 0.030858 70.316 6.24369 1.70958 101.063 5.25982 8.5388 -9.88296e-006 -4.73886e-007 -7.62381e-006 13.5466 22.0706 -3.81812 -5.249e-006 -3.1784e-006 -3 8.02887 -4.95158 0.697749 -70.1809 4.97445 -1.11806 -100.172 14.1949 -27.9212 -3.51952e-006 -3.10329e-006 1.48808e-005 -5.41833 0.0475971 1.15664 1.46402e-005 -9.80767e-007 3.2021 -8.02949 -4.95145 -0.697654 174.683 -0.48418 2.70262 180 7.01546e-015 178.917 176.439 6.13789 -179.974 -1.02514e-006 7.58868e-007 0.0689965 -18.5848 67.9437 19.4927 8.13627 25.2327 -3.48764 -178.323 -2.73907 2.01225 4.54188e-006 -4.6773e-006 -1.11127 -0.826616 -5.21224 0.116571 -6.54413e-007 -3.04859e-006 -0.0254354 18.4313 67.6741 -19.2558 -8.13501 25.2327 3.48711 
55.663 91.6291 9.49359 0.715733 -2.72838 1.72863 0.137831 -1.21688 -0.613287 0.251996 1.56777 -1.2565 0.267273 3.21268 -1.26148 -5.81039 26.6095 1.58666 4.23947 -12.3672 0.0271503 70.3279 6.21786 1.69504 101.116 5.26374 8.62163 -9.88296e-006 -4.73886e-007 -7.62381e-006 13.4899 21.9901 -3.79936 -5.249e-006 -3.1784e-006 -3 8.02887 -4.95158 0.697749 -70.1485 4.96592 -1.11923 -100.275 14.1332 -27.8817 -3.51952e-006 -3.10329e-006 1.48808e-005 -5.44767 0.0475596 1.14472 1.46402e-005 -9.80767e-007 3.19935 -8.02949 -4.95145 -0.697654 174.712 -0.397164 2.67167 180 7.01546e-015 178.917 176.459 6.15776 -179.977 -1.02514e-006 7.58868e-007 0.0691609 -18.5726 67.9275 19.4789 8.13627 25.2327 -3.48764 -178.302 -2.66642 2.00238 4.54188e-006 -4.6773e-006 -1.11078 -0.832463 -5.2089 0.116232 -6.54413e-007 -3.04859e-006 -0.0251325 18.4267 67.6685 -19.2511 -8.13501 25.2327 3.48711 
55.6667 91.6469 9.48353 0.695687 -2.66567 1.72441 0.140584 -1.21805 -0.612248 0.256729 1.5654 -1.25343 0.271972 3.21031 -1.25849 -5.74462 26.541 1.56444 4.18795 -12.3188 0.0231595 70.3414 6.19186 1.68012 101.168 5.26637 8.70523 -9.88296e-006 -4.73886e-007 -7.62381e-006 13.4333 21.9108 -3.78079 -5.249e-006 -3.1784e-006 -3 8.02887 -4.95158 0.697749 -70.1139 4.95712 -1.12062 -100.378 14.0717 -27.846 -3.51952e-006 -3.10329e-006 1.48808e-005 -5.47302 0.0474828 1.13265 1.46402e-005 -9.80767e-007 3.19663 -8.02949 -4.95145 -0.697654 174.742 -0.311894 2.64108 180 7.01546e-015 178.918 176.479 6.17847 -179.979 -1.02514e-006 7.58868e-007 0.0693775 -18.5612 67.9123 19.4659 8.13627 25.2327 -3.48764 -178.28 -2.59755 1.99213 4.54188e-006 -4.6773e-006 -1.11032 -0.838766 -5.20121 0.115729 -6.54413e-007 -3.04859e-006 -0.0246867 18.421 67.6615 -19.2452 -8.13501 25.2327 3.48711 
55.6704 91.6403 9.46215 0.675694 -2.60406 1.72101 0.143286 -1.21901 -0.611311 0.261309 1.56346 -1.25053 0.276521 3.20836 -1.25566 -5.67621 26.4724 1.54134 4.13458 -12.2698 0.0189702 70.3562 6.16572 1.66492 101.219 5.2681 8.78939 -9.88296e-006 -4.73886e-007 -7.62381e-006 13.377 21.8323 -3.76237 -5.249e-006 -3.1784e-006 -3 8.02887 -4.95158 0.697749 -70.0777 4.94811 -1.12219 -100.482 14.0104 -27.8131 -3.51952e-006 -3.10329e-006 1.48808e-005 -5.49557 0.0473784 1.12046 1.46402e-005 -9.80767e-007 3.19392 -8.02949 -4.95145 -0.697654 174.771 -0.227851 2.61072 180 7.01546e-015 178.918 176.499 6.19975 -179.981 -1.02514e-006 7.58868e-007 0.0696309 -18.5504 67.8978 19.4536 8.13627 25.2327 -3.48764 -178.258 -2.53133 1.98162 4.54188e-006 -4.6773e-006 -1.10989 -0.84539 -5.19046 0.115111 -6.54413e-007 -3.04859e-006 -0.0241403 18.4146 67.6535 -19.2385 -8.13501 25.2327 3.48711 
55.6672 91.6442 9.45566 0.655733 -2.5431 1.71808 0.145961 -1.21985 -0.610432 0.265801 1.56177 -1.24772 0.280982 3.20667 -1.25292 -5.6063 26.4039 1.51773 4.08015 -12.2204 0.0146667 70.3717 6.1395 1.64956 101.269 5.26929 8.87386 -9.88296e-006 -4.73886e-007 -7.62381e-006 13.3207 21.7542 -3.74404 -5.249e-006 -3.1784e-006 -3 8.02887 -4.95158 0.697749 -70.0405 4.939 -1.12384 -100.587 13.9492 -27.7818 -3.51952e-006 -3.10329e-006 1.48808e-005 -5.5165 0.047258 1.10821 1.46402e-005 -9.80767e-007 3.19121 -8.02949 -4.95145 -0.697654 174.801 -0.144516 2.58051 180 7.01546e-015 178.919 176.519 6.2214 -179.983 -1.02514e-006 7.58868e-007 0.0699055 -18.5398 67.8837 19.4415 8.13627 25.2327 -3.48764 -178.236 -2.46665 1.97095 4.54188e-006 -4.6773e-006 -1.10947 -0.852199 -5.17794 0.114426 -6.54413e-007 -3.04859e-006 -0.0235358 18.4077 67.6451 -19.2314 -8.13501 25.2327 3.48711 
55.6166 91.6482 9.4385 0.635785 -2.48232 1.71528 0.148627 -1.22065 -0.609569 0.270269 1.56014 -1.24493 0.285419 3.20505 -1.25021 -5.53603 26.3354 1.49402 4.02542 -12.1709 0.0103334 70.3874 6.11326 1.63416 101.319 5.27034 8.95842 -9.88296e-006 -4.73886e-007 -7.62381e-006 13.2645 21.6762 -3.72576 -5.249e-006 -3.1784e-006 -3 8.02887 -4.95158 0.697749 -70.0032 4.92985 -1.12552 -100.691 13.888 -27.7509 -3.51952e-006 -3.10329e-006 1.48808e-005 -5.53698 0.0471332 1.09594 1.46402e-005 -9.80767e-007 3.18851 -8.02949 -4.95145 -0.697654 174.83 -0.0613708 2.55034 180 7.01546e-015 178.919 176.54 6.24316 -179.985 -1.02514e-006 7.58868e-007 0.0701859 -18.5294 67.8698 19.4296 8.13627 25.2327 -3.48764 -178.215 -2.40239 1.96025 4.54188e-006 -4.6773e-006 -1.10906 -0.859058 -5.16493 0.113723 -6.54413e-007 -3.04859e-006 -0.0229154 18.4007 67.6364 -19.2242 -8.13501 25.2327 3.48711 
55.6204 91.6449 9.42663 0.615832 -2.42124 1.71227 0.151307 -1.2215 -0.60868 0.274777 1.55841 -1.24211 0.289897 3.20331 -1.24745 -5.46653 26.2668 1.47058 3.9712 -12.1216 0.00605444 70.4027 6.08706 1.61883 101.369 5.2716 9.04283 -9.88296e-006 -4.73886e-007 -7.62381e-006 13.2083 21.5981 -3.70747 -5.249e-006 -3.1784e-006 -3 8.02887 -4.95158 0.697749 -69.9662 4.92075 -1.12716 -100.796 13.8267 -27.7194 -3.51952e-006 -3.10329e-006 1.48808e-005 -5.55821 0.0470157 1.08371 1.46402e-005 -9.80767e-007 3.18581 -8.02949 -4.95145 -0.697654 174.86 0.0221036 2.52012 180 7.01546e-015 178.92 176.56 6.26474 -179.987 -1.02514e-006 7.58868e-007 0.0704566 -18.5188 67.8556 19.4176 8.13627 25.2327 -3.48764 -178.193 -2.33743 1.94962 4.54188e-006 -4.6773e-006 -1.10864 -0.865832 -5.15273 0.113051 -6.54413e-007 -3.04859e-006 -0.0223216 18.3939 67.628 -19.2172 -8.13501 25.2327 3.48711 
55.6603 91.6442 9.42595 0.595858 -2.3594 1.7087 0.15402 -1.22251 -0.607721 0.279391 1.55638 -1.23917 0.294479 3.20127 -1.24459 -5.39895 26.1983 1.44779 3.91826 -12.0728 0.00191407 70.4172 6.06094 1.6037 101.42 5.27347 9.12687 -9.88296e-006 -4.73886e-007 -7.62381e-006 13.1521 21.5194 -3.68913 -5.249e-006 -3.1784e-006 -3 8.02887 -4.95158 0.697749 -69.9303 4.91179 -1.12868 -100.899 13.7652 -27.6861 -3.51952e-006 -3.10329e-006 1.48808e-005 -5.58135 0.0469171 1.07154 1.46402e-005 -9.80767e-007 3.18309 -8.02949 -4.95145 -0.697654 174.89 0.106426 2.48973 180 7.01546e-015 178.92 176.58 6.28592 -179.989 -1.02514e-006 7.58868e-007 0.0707022 -18.5079 67.841 19.4051 8.13627 25.2327 -3.48764 -178.171 -2.27064 1.93917 4.54188e-006 -4.6773e-006 -1.1082 -0.872387 -5.14264 0.112458 -6.54413e-007 -3.04859e-006 -0.0217967 18.3877 67.6203 -19.2107 -8.13501 25.2327 3.48711 
55.6497 91.639 9.41055 0.575849 -2.29633 1.70423 0.156789 -1.22375 -0.606649 0.284175 1.55387 -1.23604 0.299228 3.19877 -1.24154 -5.3344 26.1298 1.42603 3.86738 -12.0246 -0.00200363 70.4303 6.03497 1.58887 101.472 5.27632 9.21031 -9.88296e-006 -4.73886e-007 -7.62381e-006 13.0959 21.4397 -3.67069 -5.249e-006 -3.1784e-006 -3 8.02887 -4.95158 0.697749 -69.8962 4.90305 -1.13003 -101.002 13.7034 -27.6499 -3.51952e-006 -3.10329e-006 1.48808e-005 -5.60761 0.0468492 1.0595 1.46402e-005 -9.80767e-007 3.18036 -8.02949 -4.95145 -0.697654 174.92 0.192114 2.45909 180 7.01546e-015 178.921 176.6 6.30644 -179.992 -1.02514e-006 7.58868e-007 0.070907 -18.4965 67.8255 19.3921 8.13627 25.2327 -3.48764 -178.149 -2.20092 1.92904 4.54188e-006 -4.6773e-006 -1.10774 -0.878586 -5.13593 0.111992 -6.54413e-007 -3.04859e-006 -0.0213831 18.3823 67.6136 -19.2051 -8.13501 25.2327 3.48711 
55.6654 91.6377 9.39516 0.555792 -2.23156 1.69852 0.159632 -1.22532 -0.605423 0.289193 1.55071 -1.23267 0.30421 3.1956 -1.23825 -5.27403 26.0612 1.4057 3.81935 -11.9774 -0.00561466 70.4415 6.0092 1.57446 101.525 5.28052 9.29291 -9.88296e-006 -4.73886e-007 -7.62381e-006 13.0395 21.3589 -3.65211 -5.249e-006 -3.1784e-006 -3 8.02887 -4.95158 0.697749 -69.8645 4.89461 -1.13113 -101.103 13.6413 -27.6097 -3.51952e-006 -3.10329e-006 1.48808e-005 -5.63814 0.0468235 1.04763 1.46402e-005 -9.80767e-007 3.17761 -8.02949 -4.95145 -0.697654 174.95 0.279689 2.4281 180 7.01547e-015 178.921 176.621 6.32603 -179.994 -1.02514e-006 7.58868e-007 0.0710557 -18.4843 67.809 19.3782 8.13627 25.2327 -3.48764 -178.127 -2.12713 1.91931 4.54188e-006 -4.6773e-006 -1.10724 -0.884296 -5.1339 0.111701 -6.54413e-007 -3.04859e-006 -0.0211231 18.3781 67.6084 -19.2006 -8.13501 25.2327 3.48711 
55.631 91.6333 9.38136 0.535676 -2.16464 1.69121 0.162573 -1.22731 -0.603999 0.294511 1.54671 -1.22897 0.309487 3.19161 -1.23463 -5.21896 25.9926 1.38717 3.77495 -11.9314 -0.00883507 70.4503 5.98368 1.56059 101.581 5.28645 9.37445 -9.88296e-006 -4.73886e-007 -7.62381e-006 12.983 21.2766 -3.63332 -5.249e-006 -3.1784e-006 -3 8.02887 -4.95158 0.697749 -69.8359 4.88655 -1.1319 -101.203 13.5786 -27.5644 -3.51952e-006 -3.10329e-006 1.48808e-005 -5.67415 0.0468516 1.03597 1.46402e-005 -9.80767e-007 3.17483 -8.02949 -4.95145 -0.697654 174.981 0.369668 2.39665 180 7.01547e-015 178.922 176.641 6.3445 -179.996 -1.02514e-006 7.58868e-007 0.0711327 -18.4711 67.791 19.3632 8.13627 25.2327 -3.48764 -178.106 -2.04815 1.91012 4.54188e-006 -4.6773e-006 -1.10669 -0.889381 -5.13784 0.111635 -6.54413e-007 -3.04859e-006 -0.0210592 18.3754 67.605 -19.1977 -8.13501 25.2327 3.48711 
55.6422 91.633 9.3661 0.515492 -2.09508 1.68197 0.16563 -1.2298 -0.602334 0.300194 1.54169 -1.22488 0.315124 3.18659 -1.23063 -5.17032 25.9241 1.37081 3.73496 -11.887 -0.011581 70.4562 5.95847 1.54737 101.639 5.29448 9.45469 -9.88296e-006 -4.73886e-007 -7.62381e-006 12.9264 21.1923 -3.61429 -5.249e-006 -3.1784e-006 -3 8.02887 -4.95158 0.697749 -69.811 4.87896 -1.13229 -101.301 13.5153 -27.5128 -3.51952e-006 -3.10329e-006 1.48808e-005 -5.71681 0.0469453 1.02458 1.46402e-005 -9.80767e-007 3.17201 -8.02949 -4.95145 -0.697654 175.012 0.46257 2.36464 180 7.01547e-015 178.922 176.662 6.36153 -179.998 -1.02514e-006 7.58868e-007 0.0711225 -18.4567 67.7713 19.3468 8.13627 25.2327 -3.48764 -178.084 -1.96288 1.90157 4.54188e-006 -4.6773e-006 -1.10608 -0.893706 -5.14904 0.111842 -6.54413e-007 -3.04859e-006 -0.0212336 18.3745 67.6039 -19.1966 -8.13501 25.2327 3.48711 
55.6725 91.6298 9.35302 0.495236 -2.02243 1.67045 0.168826 -1.2329 -0.600385 0.306306 1.53548 -1.22032 0.321186 3.18037 -1.22618 -5.12923 25.8555 1.35702 3.70016 -11.8443 -0.0137685 70.4587 5.93363 1.53492 101.7 5.305 9.53341 -9.88296e-006 -4.73886e-007 -7.62381e-006 12.8695 21.1058 -3.59497 -5.249e-006 -3.1784e-006 -3 8.02887 -4.95158 0.697749 -69.7906 4.87192 -1.13223 -101.397 13.4513 -27.454 -3.51952e-006 -3.10329e-006 1.48808e-005 -5.7673 0.0471162 1.01349 1.46402e-005 -9.80767e-007 3.16915 -8.02949 -4.95145 -0.697654 175.043 0.558915 2.33198 180 7.01547e-015 178.923 176.683 6.37691 179.999 -1.02514e-006 7.58868e-007 0.0710097 -18.4409 67.7495 19.3289 8.13627 25.2327 -3.48764 -178.063 -1.87018 1.89378 4.54188e-006 -4.6773e-006 -1.1054 -0.897136 -5.16879 0.112369 -6.54413e-007 -3.04859e-006 -0.0216888 18.3757 67.6054 -19.1976 -8.13501 25.2327 3.48711 
